<svg xmlns="http://www.w3.org/2000/svg" xmlns:xlink="http://www.w3.org/1999/xlink" width="500" zoomAndPan="magnify" viewBox="0 0 375 74.999997" height="100" preserveAspectRatio="xMidYMid meet" version="1.0"><defs><filter x="0%" y="0%" width="100%" height="100%" id="030209d914"><feColorMatrix values="0 0 0 0 1 0 0 0 0 1 0 0 0 0 1 0 0 0 1 0" color-interpolation-filters="sRGB"/></filter><mask id="405e8788a4"><g filter="url(#030209d914)"><rect x="-37.5" width="450" fill="#000000" y="-7.5" height="89.999996" fill-opacity="0.1373"/></g></mask><clipPath id="a5f3c49c80"><path d="M 0 0 L 375 0 L 375 75 L 0 75 Z M 0 0 " clip-rule="nonzero"/></clipPath><clipPath id="25f693c337"><path d="M 221.027344 -66.375 C 85.371094 -66.375 -24.601562 -34.726562 -24.601562 4.3125 C -24.601562 43.351562 85.371094 75 221.027344 75 C 356.6875 75 466.660156 43.351562 466.660156 4.3125 C 466.660156 -34.726562 356.6875 -66.375 221.027344 -66.375 " clip-rule="nonzero"/></clipPath><clipPath id="e330e4d39d"><rect x="0" width="375" y="0" height="75"/></clipPath><clipPath id="b812de93f2"><path d="M 311.164062 -66.375 C 135.09375 -66.375 -7.640625 -34.726562 -7.640625 4.3125 C -7.640625 43.351562 135.09375 75 311.164062 75 C 487.234375 75 629.964844 43.351562 629.964844 4.3125 C 629.964844 -34.726562 487.234375 -66.375 311.164062 -66.375 " clip-rule="nonzero"/></clipPath></defs><rect x="-37.5" width="450" fill="#ffffff" y="-7.5" height="89.999996" fill-opacity="1"/><rect x="-37.5" width="450" fill="#ffffff" y="-7.5" height="89.999996" fill-opacity="1"/><rect x="-37.5" width="450" fill="#ffffff" y="-7.5" height="89.999996" fill-opacity="1"/><g mask="url(#405e8788a4)"><g transform="matrix(1, 0, 0, 1, 0, -0.000000000000001893)"><g clip-path="url(#e330e4d39d)"><g clip-path="url(#a5f3c49c80)"><g clip-path="url(#25f693c337)"><rect x="-82.5" width="540" fill="#000000" height="107.999996" y="-16.499999" fill-opacity="1"/></g></g></g></g></g><g clip-path="url(#b812de93f2)"><rect x="-37.5" width="450" fill="#4164a6" y="-7.5" height="89.999996" fill-opacity="1"/></g></svg>